<svg width="27" height="21" viewBox="0 0 27 21" fill="none" xmlns="http://www.w3.org/2000/svg">
<path d="M15.7969 12.3375L18.2906 14.8313C18.5313 15.0719 18.8375 15.1922 19.2094 15.1922C19.5813 15.1922 19.8875 15.0719 20.1281 14.8313C20.3688 14.5906 20.4891 14.2844 20.4891 13.9125C20.4891 13.5406 20.3688 13.2344 20.1281 12.9938L17.6344 10.5L20.1281 8.00625C20.3688 7.76562 20.4891 7.45938 20.4891 7.0875C20.4891 6.71563 20.3688 6.40938 20.1281 6.16875C19.8875 5.92813 19.5813 5.80781 19.2094 5.80781C18.8375 5.80781 18.5313 5.92813 18.2906 6.16875L15.7969 8.6625L13.3031 6.16875C13.0625 5.92813 12.7563 5.80781 12.3844 5.80781C12.0125 5.80781 11.7062 5.92813 11.4656 6.16875C11.225 6.40938 11.1047 6.71563 11.1047 7.0875C11.1047 7.45938 11.225 7.76562 11.4656 8.00625L13.9594 10.5L11.4656 12.9938C11.225 13.2344 11.1047 13.5406 11.1047 13.9125C11.1047 14.2844 11.225 14.5906 11.4656 14.8313C11.7062 15.0719 12.0125 15.1922 12.3844 15.1922C12.7563 15.1922 13.0625 15.0719 13.3031 14.8313L15.7969 12.3375ZM9.23438 21C8.81875 21 8.425 20.907 8.05312 20.7211C7.68125 20.5352 7.375 20.2781 7.13438 19.95L1.22813 12.075C0.878125 11.6156 0.703125 11.0906 0.703125 10.5C0.703125 9.90937 0.878125 9.38438 1.22813 8.925L7.13438 1.05C7.375 0.721875 7.68125 0.464844 8.05312 0.278906C8.425 0.0929688 8.81875 0 9.23438 0H23.6719C24.3938 0 25.0117 0.257031 25.5258 0.771094C26.0398 1.28516 26.2969 1.90312 26.2969 2.625V18.375C26.2969 19.0969 26.0398 19.7148 25.5258 20.2289C25.0117 20.743 24.3938 21 23.6719 21H9.23438Z" fill="white"/>
</svg>
