<svg width="28" height="28" viewBox="0 0 28 28" fill="none" xmlns="http://www.w3.org/2000/svg">
<path d="M10.3898 27.125L9.86484 22.925C9.58047 22.8156 9.3125 22.6844 9.06094 22.5312C8.80937 22.3781 8.56328 22.2141 8.32266 22.0391L4.41797 23.6797L0.808594 17.4453L4.18828 14.8859C4.16641 14.7328 4.15547 14.5852 4.15547 14.443V13.557C4.15547 13.4148 4.16641 13.2672 4.18828 13.1141L0.808594 10.5547L4.41797 4.32031L8.32266 5.96094C8.56328 5.78594 8.81484 5.62188 9.07734 5.46875C9.33984 5.31562 9.60234 5.18438 9.86484 5.075L10.3898 0.875H17.6086L18.1336 5.075C18.418 5.18438 18.6859 5.31562 18.9375 5.46875C19.1891 5.62188 19.4352 5.78594 19.6758 5.96094L23.5805 4.32031L27.1898 10.5547L23.8102 13.1141C23.832 13.2672 23.843 13.4148 23.843 13.557V14.443C23.843 14.5852 23.8211 14.7328 23.7773 14.8859L27.157 17.4453L23.5477 23.6797L19.6758 22.0391C19.4352 22.2141 19.1836 22.3781 18.9211 22.5312C18.6586 22.6844 18.3961 22.8156 18.1336 22.925L17.6086 27.125H10.3898ZM14.0648 18.5938C15.3336 18.5938 16.4164 18.1453 17.3133 17.2484C18.2102 16.3516 18.6586 15.2688 18.6586 14C18.6586 12.7312 18.2102 11.6484 17.3133 10.7516C16.4164 9.85469 15.3336 9.40625 14.0648 9.40625C12.7742 9.40625 11.6859 9.85469 10.8 10.7516C9.91406 11.6484 9.47109 12.7312 9.47109 14C9.47109 15.2688 9.91406 16.3516 10.8 17.2484C11.6859 18.1453 12.7742 18.5938 14.0648 18.5938Z" fill="#767D8C"/>
</svg>
