<svg width="37" height="37" viewBox="0 0 37 37" fill="none" xmlns="http://www.w3.org/2000/svg">
<path d="M15.6222 27.1333L30.1139 12.6417L27.2361 9.76389L15.6222 21.3778L9.76389 15.5194L6.88611 18.3972L15.6222 27.1333ZM4.11111 37C2.98056 37 2.01273 36.5975 1.20764 35.7924C0.402546 34.9873 0 34.0194 0 32.8889V4.11111C0 2.98056 0.402546 2.01273 1.20764 1.20764C2.01273 0.402546 2.98056 0 4.11111 0H32.8889C34.0194 0 34.9873 0.402546 35.7924 1.20764C36.5975 2.01273 37 2.98056 37 4.11111V32.8889C37 34.0194 36.5975 34.9873 35.7924 35.7924C34.9873 36.5975 34.0194 37 32.8889 37H4.11111Z" fill="white"/>
</svg>
