<svg width="36" height="36" viewBox="0 0 36 36" fill="none" xmlns="http://www.w3.org/2000/svg">
<path d="M8.16455 35.4778V31.6147H15.8906V25.627C14.3132 25.2729 12.9048 24.6049 11.6654 23.6231C10.426 22.6412 9.51661 21.4099 8.93716 19.9291C6.52276 19.6393 4.50271 18.585 2.87702 16.7662C1.25132 14.9474 0.438477 12.8146 0.438477 10.368V8.43652C0.438477 7.37419 0.816732 6.46477 1.57324 5.70825C2.32976 4.95174 3.23918 4.57349 4.30151 4.57349H8.16455V0.710449H27.4797V4.57349H31.3428C32.4051 4.57349 33.3145 4.95174 34.071 5.70825C34.8276 6.46477 35.2058 7.37419 35.2058 8.43652V10.368C35.2058 12.8146 34.393 14.9474 32.7673 16.7662C31.1416 18.585 29.1215 19.6393 26.7071 19.9291C26.1277 21.4099 25.2182 22.6412 23.9789 23.6231C22.7395 24.6049 21.3311 25.2729 19.7537 25.627V31.6147H27.4797V35.4778H8.16455ZM8.16455 15.7763V8.43652H4.30151V10.368C4.30151 11.5913 4.65563 12.6939 5.36385 13.6758C6.07207 14.6576 7.00564 15.3578 8.16455 15.7763ZM27.4797 15.7763C28.6386 15.3578 29.5722 14.6576 30.2804 13.6758C30.9887 12.6939 31.3428 11.5913 31.3428 10.368V8.43652H27.4797V15.7763Z" fill="white"/>
</svg>
