<svg width="32" height="31" viewBox="0 0 32 31" fill="none" xmlns="http://www.w3.org/2000/svg">
<path fill-rule="evenodd" clip-rule="evenodd" d="M19.25 27.0375V30.625C22.4166 29.91 25.069 28.4179 27.2071 26.1489L24.9492 23.4609C23.437 25.1845 21.5372 26.3767 19.25 27.0375ZM26.7014 20.8826L29.0949 23.732C30.6983 21.2287 31.5 18.4222 31.5 15.3125C31.5 11.6083 30.3625 8.33438 28.0875 5.49062C25.8125 2.64688 22.8667 0.816667 19.25 0V3.5875C21.875 4.34583 23.9896 5.80417 25.5938 7.9625C27.1979 10.1208 28 12.5708 28 15.3125C28 17.3266 27.5671 19.1833 26.7014 20.8826ZM23.4548 17.0177L19.25 12.0119V8.26875C20.6208 8.91042 21.6927 9.87292 22.4656 11.1562C23.2385 12.4396 23.625 13.8396 23.625 15.3563C23.625 15.9261 23.5683 16.4799 23.4548 17.0177ZM19.25 16.6761L22.0875 20.0541C21.3557 21.046 20.4099 21.8133 19.25 22.3563V16.6761ZM15.75 12.5095V29.3562L7 20.6063H0V10.1062H7L10.6583 6.44794L15.75 12.5095ZM15.75 7.84524V1.35625L12.7876 4.31861L15.75 7.84524Z" fill="white"/>
<line x1="28.8611" y1="29.9762" x2="4.86111" y2="1.97619" stroke="white" stroke-width="3"/>
</svg>
