<svg width="32" height="32" viewBox="0 0 32 32" fill="none" xmlns="http://www.w3.org/2000/svg">
<path d="M19.5 31.2688V27.6813C22.125 26.923 24.2396 25.4646 25.8438 23.3063C27.4479 21.148 28.25 18.698 28.25 15.9563C28.25 13.2146 27.4479 10.7646 25.8438 8.6063C24.2396 6.44797 22.125 4.98963 19.5 4.2313V0.643799C23.1167 1.46047 26.0625 3.29067 28.3375 6.13442C30.6125 8.97817 31.75 12.2521 31.75 15.9563C31.75 19.6605 30.6125 22.9344 28.3375 25.7782C26.0625 28.6219 23.1167 30.4521 19.5 31.2688ZM0.25 21.25V10.75H7.25L16 2.00005V30L7.25 21.25H0.25ZM19.5 23V8.91255C20.8708 9.55422 21.9427 10.5167 22.7156 11.8C23.4885 13.0834 23.875 14.4834 23.875 16C23.875 17.4875 23.4885 18.8657 22.7156 20.1344C21.9427 21.4032 20.8708 22.3584 19.5 23Z" fill="white"/>
</svg>
