<svg width="38" height="34" viewBox="0 0 38 34" fill="none" xmlns="http://www.w3.org/2000/svg">
<path d="M3.20334 33.3125C0.892345 33.3125 -0.55083 30.8094 0.607063 28.8094L16.0287 2.17198C17.1842 0.176127 20.0658 0.176126 21.2213 2.17198L36.6429 28.8094C37.8008 30.8094 36.3577 33.3125 34.0467 33.3125H3.20334ZM18.625 27.6875C19.1563 27.6875 19.6016 27.5078 19.9609 27.1484C20.3203 26.7891 20.5 26.3438 20.5 25.8125C20.5 25.2813 20.3203 24.8359 19.9609 24.4766C19.6016 24.1172 19.1563 23.9375 18.625 23.9375C18.0938 23.9375 17.6484 24.1172 17.2891 24.4766C16.9297 24.8359 16.75 25.2813 16.75 25.8125C16.75 26.3438 16.9297 26.7891 17.2891 27.1484C17.6484 27.5078 18.0938 27.6875 18.625 27.6875ZM16.75 20.1875C16.75 21.223 17.5895 22.0625 18.625 22.0625V22.0625C19.6605 22.0625 20.5 21.223 20.5 20.1875V14.5625C20.5 13.527 19.6605 12.6875 18.625 12.6875V12.6875C17.5895 12.6875 16.75 13.527 16.75 14.5625V20.1875Z" fill="white"/>
</svg>
