<svg width="347" height="768" viewBox="0 0 347 768" fill="none" xmlns="http://www.w3.org/2000/svg">
<rect x="79.2302" y="797.704" width="78.8954" height="78.8954" rx="5.68314" transform="rotate(-180 79.2302 797.704)" fill="#202124" stroke="url(#paint0_linear_4031_451)" stroke-width="0.668605"/>
<rect x="168.128" y="707.474" width="77.564" height="77.564" rx="5.01744" transform="rotate(-180 168.128 707.474)" fill="#DBDD3C" fill-opacity="0.5" stroke="url(#paint1_linear_4031_451)" stroke-width="2"/>
<rect x="79.2302" y="708.139" width="78.8954" height="78.8954" rx="5.68314" transform="rotate(-180 79.2302 708.139)" fill="#202124" stroke="url(#paint2_linear_4031_451)" stroke-width="0.668605"/>
<rect x="168.794" y="618.575" width="78.8954" height="78.8954" rx="5.68314" transform="rotate(-180 168.794 618.575)" fill="#202124" stroke="url(#paint3_linear_4031_451)" stroke-width="0.668605"/>
<rect x="79.2302" y="618.575" width="78.8954" height="78.8954" rx="5.68314" transform="rotate(-180 79.2302 618.575)" fill="#202124" stroke="url(#paint4_linear_4031_451)" stroke-width="0.668605"/>
<rect x="168.794" y="529.011" width="78.8954" height="78.8954" rx="5.68314" transform="rotate(-180 168.794 529.011)" fill="#202124" stroke="url(#paint5_linear_4031_451)" stroke-width="0.668605"/>
<rect x="78.5645" y="528.346" width="77.564" height="77.564" rx="5.01744" transform="rotate(-180 78.5645 528.346)" fill="#0CB1AB" fill-opacity="0.5" stroke="url(#paint6_linear_4031_451)" stroke-width="2"/>
<rect x="258.357" y="439.447" width="78.8954" height="78.8954" rx="5.68314" transform="rotate(-180 258.357 439.447)" fill="#202124" stroke="url(#paint7_linear_4031_451)" stroke-width="0.668605"/>
<rect x="168.794" y="439.447" width="78.8954" height="78.8954" rx="5.68314" transform="rotate(-180 168.794 439.447)" fill="#0CB1AB" fill-opacity="0.5" stroke="url(#paint8_linear_4031_451)" stroke-width="0.668605"/>
<rect x="79.2302" y="439.447" width="78.8954" height="78.8954" rx="5.68314" transform="rotate(-180 79.2302 439.447)" fill="#202124" stroke="url(#paint9_linear_4031_451)" stroke-width="0.668605"/>
<rect x="168.794" y="349.883" width="78.8954" height="78.8954" rx="5.68314" transform="rotate(-180 168.794 349.883)" fill="#202124" stroke="url(#paint10_linear_4031_451)" stroke-width="0.668605"/>
<rect x="79.2302" y="349.883" width="78.8954" height="78.8954" rx="5.68314" transform="rotate(-180 79.2302 349.883)" fill="#202124" stroke="url(#paint11_linear_4031_451)" stroke-width="0.668605"/>
<rect x="79.2302" y="260.32" width="78.8954" height="78.8954" rx="5.68314" transform="rotate(-180 79.2302 260.32)" fill="#202124" stroke="url(#paint12_linear_4031_451)" stroke-width="0.668605"/>
<rect x="257.691" y="170.09" width="77.564" height="77.564" rx="5.01744" transform="rotate(-180 257.691 170.09)" fill="#2A51A0" fill-opacity="0.5" stroke="url(#paint13_linear_4031_451)" stroke-width="2"/>
<rect x="169.128" y="171.09" width="79.564" height="79.564" rx="6.01744" transform="rotate(-180 169.128 171.09)" fill="#202124"/>
<rect x="79.2302" y="170.756" width="78.8954" height="78.8954" rx="5.68314" transform="rotate(-180 79.2302 170.756)" fill="#202124" stroke="url(#paint14_linear_4031_451)" stroke-width="0.668605"/>
<rect x="168.794" y="81.1921" width="78.8954" height="78.8954" rx="5.68314" transform="rotate(-180 168.794 81.1921)" fill="#202124" stroke="url(#paint15_linear_4031_451)" stroke-width="0.668605"/>
<rect x="78.5645" y="80.5264" width="77.564" height="77.564" rx="5.01744" transform="rotate(-180 78.5645 80.5264)" fill="#DBDD3C" fill-opacity="0.5" stroke="url(#paint16_linear_4031_451)" stroke-width="2"/>
<defs>
<linearGradient id="paint0_linear_4031_451" x1="82.406" y1="877.602" x2="155.953" y2="798.038" gradientUnits="userSpaceOnUse">
<stop stop-color="#3A3939"/>
<stop offset="1" stop-color="#54535E"/>
</linearGradient>
<linearGradient id="paint1_linear_4031_451" x1="171.97" y1="788.038" x2="245.516" y2="708.474" gradientUnits="userSpaceOnUse">
<stop stop-color="#DBDD3C" stop-opacity="0"/>
<stop offset="1" stop-color="#F9FAAD"/>
</linearGradient>
<linearGradient id="paint2_linear_4031_451" x1="82.406" y1="788.038" x2="155.953" y2="708.474" gradientUnits="userSpaceOnUse">
<stop stop-color="#3A3939"/>
<stop offset="1" stop-color="#54535E"/>
</linearGradient>
<linearGradient id="paint3_linear_4031_451" x1="171.97" y1="698.474" x2="245.516" y2="618.91" gradientUnits="userSpaceOnUse">
<stop stop-color="#3A3939"/>
<stop offset="1" stop-color="#54535E"/>
</linearGradient>
<linearGradient id="paint4_linear_4031_451" x1="82.406" y1="698.474" x2="155.953" y2="618.91" gradientUnits="userSpaceOnUse">
<stop stop-color="#3A3939"/>
<stop offset="1" stop-color="#54535E"/>
</linearGradient>
<linearGradient id="paint5_linear_4031_451" x1="171.97" y1="608.91" x2="245.516" y2="529.346" gradientUnits="userSpaceOnUse">
<stop stop-color="#3A3939"/>
<stop offset="1" stop-color="#54535E"/>
</linearGradient>
<linearGradient id="paint6_linear_4031_451" x1="82.406" y1="608.91" x2="155.953" y2="529.346" gradientUnits="userSpaceOnUse">
<stop stop-color="#0B5754"/>
<stop offset="1" stop-color="#63E1DD"/>
</linearGradient>
<linearGradient id="paint7_linear_4031_451" x1="261.533" y1="519.346" x2="335.079" y2="439.782" gradientUnits="userSpaceOnUse">
<stop stop-color="#3A3939"/>
<stop offset="1" stop-color="#54535E"/>
</linearGradient>
<linearGradient id="paint8_linear_4031_451" x1="171.97" y1="519.346" x2="245.516" y2="439.782" gradientUnits="userSpaceOnUse">
<stop stop-color="#0B5754"/>
<stop offset="1" stop-color="#63E1DD"/>
</linearGradient>
<linearGradient id="paint9_linear_4031_451" x1="82.406" y1="519.346" x2="155.953" y2="439.782" gradientUnits="userSpaceOnUse">
<stop stop-color="#3A3939"/>
<stop offset="1" stop-color="#54535E"/>
</linearGradient>
<linearGradient id="paint10_linear_4031_451" x1="171.97" y1="429.782" x2="245.516" y2="350.218" gradientUnits="userSpaceOnUse">
<stop stop-color="#3A3939"/>
<stop offset="1" stop-color="#54535E"/>
</linearGradient>
<linearGradient id="paint11_linear_4031_451" x1="82.406" y1="429.782" x2="155.953" y2="350.218" gradientUnits="userSpaceOnUse">
<stop stop-color="#3A3939"/>
<stop offset="1" stop-color="#54535E"/>
</linearGradient>
<linearGradient id="paint12_linear_4031_451" x1="82.406" y1="340.218" x2="155.953" y2="260.654" gradientUnits="userSpaceOnUse">
<stop stop-color="#3A3939"/>
<stop offset="1" stop-color="#54535E"/>
</linearGradient>
<linearGradient id="paint13_linear_4031_451" x1="261.533" y1="250.654" x2="335.079" y2="171.09" gradientUnits="userSpaceOnUse">
<stop stop-color="#162F62"/>
<stop offset="1" stop-color="#678BD3"/>
</linearGradient>
<linearGradient id="paint14_linear_4031_451" x1="82.406" y1="250.654" x2="155.953" y2="171.09" gradientUnits="userSpaceOnUse">
<stop stop-color="#3A3939"/>
<stop offset="1" stop-color="#54535E"/>
</linearGradient>
<linearGradient id="paint15_linear_4031_451" x1="171.97" y1="161.09" x2="245.516" y2="81.5264" gradientUnits="userSpaceOnUse">
<stop stop-color="#3A3939"/>
<stop offset="1" stop-color="#54535E"/>
</linearGradient>
<linearGradient id="paint16_linear_4031_451" x1="82.406" y1="161.09" x2="155.953" y2="81.5264" gradientUnits="userSpaceOnUse">
<stop stop-color="#DBDD3C" stop-opacity="0"/>
<stop offset="1" stop-color="#F9FAAD"/>
</linearGradient>
</defs>
</svg>
