<svg width="347" height="768" viewBox="0 0 347 768" fill="none" xmlns="http://www.w3.org/2000/svg">
<rect x="346" y="781.038" width="77.564" height="77.564" rx="5.01744" transform="rotate(-180 346 781.038)" fill="#DBDD3C" fill-opacity="0.5" stroke="url(#paint0_linear_4031_405)" stroke-width="2"/>
<rect x="256.437" y="781.038" width="77.564" height="77.564" rx="5.01744" transform="rotate(-180 256.437 781.038)" fill="#DBDD3C" fill-opacity="0.5" stroke="url(#paint1_linear_4031_405)" stroke-width="2"/>
<rect x="346.666" y="692.139" width="78.8954" height="78.8954" rx="5.68314" transform="rotate(-180 346.666 692.139)" fill="#202124" stroke="url(#paint2_linear_4031_405)" stroke-width="0.668605"/>
<rect x="256.437" y="691.474" width="77.564" height="77.564" rx="5.01744" transform="rotate(-180 256.437 691.474)" fill="#DBDD3C" fill-opacity="0.5" stroke="url(#paint3_linear_4031_405)" stroke-width="2"/>
<rect x="346.666" y="602.575" width="78.8954" height="78.8954" rx="5.68314" transform="rotate(-180 346.666 602.575)" fill="#202124" stroke="url(#paint4_linear_4031_405)" stroke-width="0.668605"/>
<rect x="346.666" y="513.011" width="78.8954" height="78.8954" rx="5.68314" transform="rotate(-180 346.666 513.011)" fill="#202124" stroke="url(#paint5_linear_4031_405)" stroke-width="0.668605"/>
<rect x="257.102" y="513.011" width="78.8954" height="78.8954" rx="5.68314" transform="rotate(-180 257.102 513.011)" fill="#202124" stroke="url(#paint6_linear_4031_405)" stroke-width="0.668605"/>
<rect x="166.872" y="512.346" width="77.564" height="77.564" rx="5.01744" transform="rotate(-180 166.872 512.346)" fill="#0CB1AB" fill-opacity="0.5" stroke="url(#paint7_linear_4031_405)" stroke-width="2"/>
<rect x="346.666" y="423.447" width="78.8954" height="78.8954" rx="5.68314" transform="rotate(-180 346.666 423.447)" fill="#202124" stroke="url(#paint8_linear_4031_405)" stroke-width="0.668605"/>
<rect x="257.102" y="423.447" width="78.8954" height="78.8954" rx="5.68314" transform="rotate(-180 257.102 423.447)" fill="#0CB1AB" fill-opacity="0.5" stroke="url(#paint9_linear_4031_405)" stroke-width="0.668605"/>
<rect x="346.666" y="333.883" width="78.8954" height="78.8954" rx="5.68314" transform="rotate(-180 346.666 333.883)" fill="#202124" stroke="url(#paint10_linear_4031_405)" stroke-width="0.668605"/>
<rect x="257.102" y="333.883" width="78.8954" height="78.8954" rx="5.68314" transform="rotate(-180 257.102 333.883)" fill="#202124" stroke="url(#paint11_linear_4031_405)" stroke-width="0.668605"/>
<rect x="167.538" y="333.883" width="78.8954" height="78.8954" rx="5.68314" transform="rotate(-180 167.538 333.883)" fill="#202124" stroke="url(#paint12_linear_4031_405)" stroke-width="0.668605"/>
<rect x="346" y="243.654" width="77.564" height="77.564" rx="5.01744" transform="rotate(-180 346 243.654)" fill="#2A51A0" fill-opacity="0.5" stroke="url(#paint13_linear_4031_405)" stroke-width="2"/>
<rect x="346" y="154.09" width="77.564" height="77.564" rx="5.01744" transform="rotate(-180 346 154.09)" fill="#2A51A0" fill-opacity="0.5" stroke="url(#paint14_linear_4031_405)" stroke-width="2"/>
<rect x="256.437" y="154.09" width="77.564" height="77.564" rx="5.01744" transform="rotate(-180 256.437 154.09)" fill="#2A51A0" fill-opacity="0.5" stroke="url(#paint15_linear_4031_405)" stroke-width="2"/>
<rect x="346.666" y="65.1921" width="78.8954" height="78.8954" rx="5.68314" transform="rotate(-180 346.666 65.1921)" fill="#202124" stroke="url(#paint16_linear_4031_405)" stroke-width="0.668605"/>
<defs>
<linearGradient id="paint0_linear_4031_405" x1="349.842" y1="861.602" x2="423.388" y2="782.038" gradientUnits="userSpaceOnUse">
<stop stop-color="#DBDD3C" stop-opacity="0"/>
<stop offset="1" stop-color="#F9FAAD"/>
</linearGradient>
<linearGradient id="paint1_linear_4031_405" x1="260.278" y1="861.602" x2="333.825" y2="782.038" gradientUnits="userSpaceOnUse">
<stop stop-color="#DBDD3C" stop-opacity="0"/>
<stop offset="1" stop-color="#F9FAAD"/>
</linearGradient>
<linearGradient id="paint2_linear_4031_405" x1="349.842" y1="772.038" x2="423.388" y2="692.474" gradientUnits="userSpaceOnUse">
<stop stop-color="#3A3939"/>
<stop offset="1" stop-color="#54535E"/>
</linearGradient>
<linearGradient id="paint3_linear_4031_405" x1="260.278" y1="772.038" x2="333.825" y2="692.474" gradientUnits="userSpaceOnUse">
<stop stop-color="#DBDD3C" stop-opacity="0"/>
<stop offset="1" stop-color="#F9FAAD"/>
</linearGradient>
<linearGradient id="paint4_linear_4031_405" x1="349.842" y1="682.474" x2="423.388" y2="602.91" gradientUnits="userSpaceOnUse">
<stop stop-color="#3A3939"/>
<stop offset="1" stop-color="#54535E"/>
</linearGradient>
<linearGradient id="paint5_linear_4031_405" x1="349.842" y1="592.91" x2="423.388" y2="513.346" gradientUnits="userSpaceOnUse">
<stop stop-color="#3A3939"/>
<stop offset="1" stop-color="#54535E"/>
</linearGradient>
<linearGradient id="paint6_linear_4031_405" x1="260.278" y1="592.91" x2="333.825" y2="513.346" gradientUnits="userSpaceOnUse">
<stop stop-color="#3A3939"/>
<stop offset="1" stop-color="#54535E"/>
</linearGradient>
<linearGradient id="paint7_linear_4031_405" x1="170.714" y1="592.91" x2="244.26" y2="513.346" gradientUnits="userSpaceOnUse">
<stop stop-color="#0B5754"/>
<stop offset="1" stop-color="#63E1DD"/>
</linearGradient>
<linearGradient id="paint8_linear_4031_405" x1="349.842" y1="503.346" x2="423.388" y2="423.782" gradientUnits="userSpaceOnUse">
<stop stop-color="#3A3939"/>
<stop offset="1" stop-color="#54535E"/>
</linearGradient>
<linearGradient id="paint9_linear_4031_405" x1="260.278" y1="503.346" x2="333.825" y2="423.782" gradientUnits="userSpaceOnUse">
<stop stop-color="#0B5754"/>
<stop offset="1" stop-color="#63E1DD"/>
</linearGradient>
<linearGradient id="paint10_linear_4031_405" x1="349.842" y1="413.782" x2="423.388" y2="334.218" gradientUnits="userSpaceOnUse">
<stop stop-color="#3A3939"/>
<stop offset="1" stop-color="#54535E"/>
</linearGradient>
<linearGradient id="paint11_linear_4031_405" x1="260.278" y1="413.782" x2="333.825" y2="334.218" gradientUnits="userSpaceOnUse">
<stop stop-color="#3A3939"/>
<stop offset="1" stop-color="#54535E"/>
</linearGradient>
<linearGradient id="paint12_linear_4031_405" x1="170.714" y1="413.782" x2="244.26" y2="334.218" gradientUnits="userSpaceOnUse">
<stop stop-color="#3A3939"/>
<stop offset="1" stop-color="#54535E"/>
</linearGradient>
<linearGradient id="paint13_linear_4031_405" x1="349.842" y1="324.218" x2="423.388" y2="244.654" gradientUnits="userSpaceOnUse">
<stop stop-color="#162F62"/>
<stop offset="1" stop-color="#678BD3"/>
</linearGradient>
<linearGradient id="paint14_linear_4031_405" x1="349.842" y1="234.654" x2="423.388" y2="155.09" gradientUnits="userSpaceOnUse">
<stop stop-color="#162F62"/>
<stop offset="1" stop-color="#678BD3"/>
</linearGradient>
<linearGradient id="paint15_linear_4031_405" x1="260.278" y1="234.654" x2="333.825" y2="155.09" gradientUnits="userSpaceOnUse">
<stop stop-color="#162F62"/>
<stop offset="1" stop-color="#678BD3"/>
</linearGradient>
<linearGradient id="paint16_linear_4031_405" x1="349.842" y1="145.09" x2="423.388" y2="65.5264" gradientUnits="userSpaceOnUse">
<stop stop-color="#3A3939"/>
<stop offset="1" stop-color="#54535E"/>
</linearGradient>
</defs>
</svg>
