<svg width="306" height="306" viewBox="0 0 306 306" fill="none" xmlns="http://www.w3.org/2000/svg">
<path d="M176.5 273H130.5L145.5 161H161.5L176.5 273Z" fill="url(#paint0_linear_4273_104)"/>
<path d="M130.5 33L176.5 33L161.5 145H145.5L130.5 33Z" fill="url(#paint1_linear_4273_104)"/>
<path d="M84.2679 254.352L51.7983 221.768L141.721 153.337L153.015 164.67L84.2679 254.352Z" fill="url(#paint2_linear_4273_104)"/>
<path d="M221.802 52.3612L254.272 84.9452L164.349 153.377L153.055 142.043L221.802 52.3612Z" fill="url(#paint3_linear_4273_104)"/>
<path d="M273 129.5V175.5L161 160.5V144.5L273 129.5Z" fill="url(#paint4_linear_4273_104)"/>
<path d="M33 175.5L33 129.5L145 144.5V160.5L33 175.5Z" fill="url(#paint5_linear_4273_104)"/>
<path d="M254.352 221.802L221.768 254.272L153.337 164.349L164.67 153.055L254.352 221.802Z" fill="url(#paint6_linear_4273_104)"/>
<path d="M52.3612 84.2679L84.9452 51.7982L153.377 141.721L142.043 153.015L52.3612 84.2679Z" fill="url(#paint7_linear_4273_104)"/>
<defs>
<linearGradient id="paint0_linear_4273_104" x1="153.5" y1="273" x2="153.5" y2="161" gradientUnits="userSpaceOnUse">
<stop stop-color="#737417" stop-opacity="0"/>
<stop offset="0.9999" stop-color="#C7C938"/>
</linearGradient>
<linearGradient id="paint1_linear_4273_104" x1="153.5" y1="33" x2="153.5" y2="145" gradientUnits="userSpaceOnUse">
<stop stop-color="#737417" stop-opacity="0"/>
<stop offset="0.9999" stop-color="#C7C938"/>
</linearGradient>
<linearGradient id="paint2_linear_4273_104" x1="68.0331" y1="238.06" x2="147.368" y2="159.004" gradientUnits="userSpaceOnUse">
<stop stop-color="#737417" stop-opacity="0"/>
<stop offset="0.9999" stop-color="#C7C938"/>
</linearGradient>
<linearGradient id="paint3_linear_4273_104" x1="238.037" y1="68.6532" x2="158.702" y2="147.71" gradientUnits="userSpaceOnUse">
<stop stop-color="#737417" stop-opacity="0"/>
<stop offset="0.9999" stop-color="#C7C938"/>
</linearGradient>
<linearGradient id="paint4_linear_4273_104" x1="273" y1="152.5" x2="161" y2="152.5" gradientUnits="userSpaceOnUse">
<stop stop-color="#737417" stop-opacity="0"/>
<stop offset="0.9999" stop-color="#C7C938"/>
</linearGradient>
<linearGradient id="paint5_linear_4273_104" x1="33" y1="152.5" x2="145" y2="152.5" gradientUnits="userSpaceOnUse">
<stop stop-color="#737417" stop-opacity="0"/>
<stop offset="0.9999" stop-color="#C7C938"/>
</linearGradient>
<linearGradient id="paint6_linear_4273_104" x1="238.06" y1="238.037" x2="159.004" y2="158.702" gradientUnits="userSpaceOnUse">
<stop stop-color="#737417" stop-opacity="0"/>
<stop offset="0.9999" stop-color="#C7C938"/>
</linearGradient>
<linearGradient id="paint7_linear_4273_104" x1="68.6532" y1="68.033" x2="147.71" y2="147.368" gradientUnits="userSpaceOnUse">
<stop stop-color="#737417" stop-opacity="0"/>
<stop offset="0.9999" stop-color="#C7C938"/>
</linearGradient>
</defs>
</svg>
