<svg width="684" height="684" viewBox="0 0 684 684" fill="none" xmlns="http://www.w3.org/2000/svg">
<g clip-path="url(#clip0_4125_103)">
<g filter="url(#filter0_d_4125_103)">
<path d="M610.931 0H74.103C34.8339 0 3 30.7634 3 68.7121V614.973C3 652.922 34.8339 683.685 74.103 683.685H610.931C650.2 683.685 682.034 652.922 682.034 614.973V68.7121C682.034 30.7634 650.2 0 610.931 0Z" fill="#255EAF"/>
</g>
<mask id="mask0_4125_103" style="mask-type:alpha" maskUnits="userSpaceOnUse" x="3" y="0" width="680" height="684">
<path d="M610.931 0H74.103C34.8339 0 3 30.7634 3 68.7121V614.973C3 652.922 34.8339 683.685 74.103 683.685H610.931C650.2 683.685 682.034 652.922 682.034 614.973V68.7121C682.034 30.7634 650.2 0 610.931 0Z" fill="#A2AAC1"/>
</mask>
<g mask="url(#mask0_4125_103)">
<path d="M343 757C572.198 757 758 571.198 758 342C758 112.802 572.198 -73 343 -73C113.802 -73 -72 112.802 -72 342C-72 571.198 113.802 757 343 757Z" fill="#396EB8"/>
<path d="M344.707 647.7C514.484 647.7 652.114 510.069 652.114 340.293C652.114 170.517 514.484 32.8856 344.707 32.8856C174.931 32.8856 37.2998 170.517 37.2998 340.293C37.2998 510.069 174.931 647.7 344.707 647.7Z" fill="#4577BC"/>
<path d="M344.71 555.478C463.553 555.478 559.895 459.136 559.895 340.293C559.895 221.449 463.553 125.108 344.71 125.108C225.866 125.108 129.524 221.449 129.524 340.293C129.524 459.136 225.866 555.478 344.71 555.478Z" fill="#7EA3D9"/>
<path d="M344.709 470.085C416.392 470.085 474.503 411.975 474.503 340.292C474.503 268.609 416.392 210.498 344.709 210.498C273.026 210.498 214.915 268.609 214.915 340.292C214.915 411.975 273.026 470.085 344.709 470.085Z" fill="#2A51A0" stroke="white" stroke-width="6.87121"/>
<mask id="mask1_4125_103" style="mask-type:alpha" maskUnits="userSpaceOnUse" x="246" y="241" width="195" height="202">
<path d="M440.503 241.743H246.431V442.569H440.503V241.743Z" fill="#D9D9D9"/>
</mask>
<g mask="url(#mask1_4125_103)">
<path d="M325.474 342.156C320.622 342.156 316.579 340.273 313.345 336.508C310.109 332.743 308.829 328.349 309.503 323.329L312.131 302.828C313.209 294.879 316.714 288.289 322.644 283.059C328.574 277.83 335.515 275.215 343.467 275.215C351.418 275.215 358.359 277.83 364.289 283.059C370.219 288.289 373.723 294.879 374.801 302.828L377.429 323.329C378.103 328.349 376.823 332.743 373.587 336.508C370.353 340.273 366.311 342.156 361.458 342.156H325.474ZM278.775 409.099V385.669C278.775 380.927 279.954 376.568 282.313 372.594C284.672 368.619 287.805 365.587 291.713 363.494C300.069 359.171 308.56 355.929 317.185 353.766C325.811 351.605 334.572 350.524 343.467 350.524C352.361 350.524 361.121 351.605 369.747 353.766C378.372 355.929 386.863 359.171 395.219 363.494C399.127 365.587 402.26 368.619 404.619 372.594C406.978 376.568 408.157 380.927 408.157 385.669V409.099H278.775Z" fill="white"/>
</g>
</g>
</g>
<defs>
<filter id="filter0_d_4125_103" x="-65.7122" y="-37.7917" width="816.459" height="821.11" filterUnits="userSpaceOnUse" color-interpolation-filters="sRGB">
<feFlood flood-opacity="0" result="BackgroundImageFix"/>
<feColorMatrix in="SourceAlpha" type="matrix" values="0 0 0 0 0 0 0 0 0 0 0 0 0 0 0 0 0 0 127 0" result="hardAlpha"/>
<feOffset dy="30.9205"/>
<feGaussianBlur stdDeviation="34.3561"/>
<feComposite in2="hardAlpha" operator="out"/>
<feColorMatrix type="matrix" values="0 0 0 0 0 0 0 0 0 0 0 0 0 0 0 0 0 0 0.1 0"/>
<feBlend mode="normal" in2="BackgroundImageFix" result="effect1_dropShadow_4125_103"/>
<feBlend mode="normal" in="SourceGraphic" in2="effect1_dropShadow_4125_103" result="shape"/>
</filter>
<clipPath id="clip0_4125_103">
<rect width="684" height="684" fill="white"/>
</clipPath>
</defs>
</svg>
