<svg width="684" height="684" viewBox="0 0 684 684" fill="none" xmlns="http://www.w3.org/2000/svg">
<g clip-path="url(#clip0_4260_120)">
<mask id="mask0_4260_120" style="mask-type:luminance" maskUnits="userSpaceOnUse" x="0" y="0" width="684" height="684">
<path d="M684 0H0V684H684V0Z" fill="white"/>
</mask>
<g mask="url(#mask0_4260_120)">
<g filter="url(#filter0_d_4260_120)">
<path d="M695.389 -107H-10.5043C-62.1406 -107 -104 -66.5482 -104 -16.6482V701.648C-104 751.549 -62.1406 792 -10.5043 792H695.389C747.025 792 788.884 751.549 788.884 701.648V-16.6482C788.884 -66.5482 747.025 -107 695.389 -107Z" fill="#255EAF"/>
</g>
<mask id="mask1_4260_120" style="mask-type:alpha" maskUnits="userSpaceOnUse" x="-104" y="-107" width="893" height="899">
<path d="M695.389 -107H-10.5043C-62.1406 -107 -104 -66.5482 -104 -16.6482V701.648C-104 751.549 -62.1406 792 -10.5043 792H695.389C747.025 792 788.884 751.549 788.884 701.648V-16.6482C788.884 -66.5482 747.025 -107 695.389 -107Z" fill="#A2AAC1"/>
</mask>
<g mask="url(#mask1_4260_120)">
<path d="M343.077 888.404C644.457 888.404 888.774 644.087 888.774 342.707C888.774 41.327 644.457 -202.99 343.077 -202.99C41.6971 -202.99 -202.62 41.327 -202.62 342.707C-202.62 644.087 41.6971 888.404 343.077 888.404Z" fill="#396EB8"/>
<path d="M345.321 744.682C568.567 744.682 749.541 563.706 749.541 340.462C749.541 117.218 568.567 -63.7578 345.321 -63.7578C122.077 -63.7578 -58.8984 117.218 -58.8984 340.462C-58.8984 563.706 122.077 744.682 345.321 744.682Z" fill="#4577BC"/>
<path d="M345.326 623.416C501.597 623.416 628.28 496.733 628.28 340.462C628.28 184.191 501.597 57.5085 345.326 57.5085C189.054 57.5085 62.3711 184.191 62.3711 340.462C62.3711 496.733 189.054 623.416 345.326 623.416Z" fill="#7EA3D9"/>
<path d="M344.654 509.791C438.542 509.791 514.654 433.68 514.654 339.791C514.654 245.903 438.542 169.791 344.654 169.791C250.766 169.791 174.654 245.903 174.654 339.791C174.654 433.68 250.766 509.791 344.654 509.791Z" fill="#2A51A0" stroke="white" stroke-width="8"/>
<mask id="mask2_4260_120" style="mask-type:alpha" maskUnits="userSpaceOnUse" x="216" y="210" width="256" height="265">
<path d="M471.285 210.876H216.094V474.949H471.285V210.876Z" fill="#D9D9D9"/>
</mask>
<g mask="url(#mask2_4260_120)">
<path d="M320.03 342.912C313.65 342.912 308.334 340.436 304.081 335.486C299.826 330.535 298.143 324.757 299.029 318.156L302.485 291.199C303.902 280.746 308.511 272.081 316.309 265.204C324.106 258.328 333.233 254.889 343.69 254.889C354.145 254.889 363.272 258.328 371.069 265.204C378.867 272.081 383.474 280.746 384.892 291.199L388.347 318.156C389.234 324.757 387.551 330.535 383.295 335.486C379.043 340.436 373.728 342.912 367.347 342.912H320.03ZM258.624 430.938V400.129C258.624 393.894 260.174 388.162 263.276 382.936C266.378 377.709 270.498 373.723 275.637 370.97C286.624 365.286 297.789 361.023 309.131 358.179C320.473 355.337 331.993 353.916 343.69 353.916C355.385 353.916 366.904 355.337 378.246 358.179C389.587 361.023 400.753 365.286 411.74 370.97C416.879 373.723 420.999 377.709 424.1 382.936C427.202 388.162 428.753 393.894 428.753 400.129V430.938H258.624Z" fill="white"/>
</g>
</g>
</g>
</g>
<defs>
<filter id="filter0_d_4260_120" x="-194.352" y="-156.694" width="1073.59" height="1079.7" filterUnits="userSpaceOnUse" color-interpolation-filters="sRGB">
<feFlood flood-opacity="0" result="BackgroundImageFix"/>
<feColorMatrix in="SourceAlpha" type="matrix" values="0 0 0 0 0 0 0 0 0 0 0 0 0 0 0 0 0 0 127 0" result="hardAlpha"/>
<feOffset dy="40.6584"/>
<feGaussianBlur stdDeviation="45.176"/>
<feComposite in2="hardAlpha" operator="out"/>
<feColorMatrix type="matrix" values="0 0 0 0 0 0 0 0 0 0 0 0 0 0 0 0 0 0 0.1 0"/>
<feBlend mode="normal" in2="BackgroundImageFix" result="effect1_dropShadow_4260_120"/>
<feBlend mode="normal" in="SourceGraphic" in2="effect1_dropShadow_4260_120" result="shape"/>
</filter>
<clipPath id="clip0_4260_120">
<rect width="684" height="684" rx="70" fill="white"/>
</clipPath>
</defs>
</svg>
