<svg width="685" height="684" viewBox="0 0 685 684" fill="none" xmlns="http://www.w3.org/2000/svg">
<mask id="mask0_4125_119" style="mask-type:alpha" maskUnits="userSpaceOnUse" x="1" y="0" width="683" height="684">
<path d="M612.482 0H72.5182C33.0198 0 1 30.7776 1 68.7437V615.256C1 653.222 33.0198 684 72.5182 684H612.482C651.98 684 684 653.222 684 615.256V68.7437C684 30.7776 651.98 0 612.482 0Z" fill="#D9D9D9"/>
</mask>
<g mask="url(#mask0_4125_119)">
<path d="M325.458 -346.634L-352.458 324.475C-362.146 334.067 -362.146 349.617 -352.458 359.208L325.458 1030.32C335.146 1039.91 350.854 1039.91 360.542 1030.32L1038.46 359.208C1048.15 349.617 1048.15 334.067 1038.46 324.476L360.542 -346.634C350.854 -356.225 335.146 -356.225 325.458 -346.634Z" fill="#D7B52F"/>
<path d="M325.905 -241.715L-246.478 324.922C-256.166 334.513 -256.166 350.063 -246.478 359.654L325.905 926.29C335.593 935.882 351.301 935.882 360.99 926.291L933.373 359.654C943.061 350.063 943.061 334.513 933.372 324.921L360.99 -241.715C351.301 -251.306 335.593 -251.306 325.905 -241.715Z" fill="#EBC737"/>
<path d="M324.093 -140.545L-144.297 323.143C-153.986 332.734 -153.986 348.284 -144.297 357.876L324.093 821.564C333.782 831.155 349.49 831.155 359.178 821.564L827.569 357.876C837.257 348.284 837.257 332.734 827.569 323.143L359.178 -140.545C349.49 -150.136 333.782 -150.136 324.093 -140.545Z" fill="#F3D24E"/>
<path d="M325.282 -21.2L-24.1294 324.703C-33.8179 334.294 -33.8179 349.845 -24.1294 359.436L325.282 705.339C334.97 714.93 350.678 714.93 360.366 705.339L709.778 359.436C719.466 349.845 719.466 334.294 709.778 324.703L360.367 -21.2001C350.678 -30.7912 334.97 -30.7912 325.282 -21.2Z" fill="#FAE17D"/>
<g filter="url(#filter0_d_4125_119)">
<path d="M328.083 92.4155L91.0568 327.062C82.8911 335.146 82.8911 348.252 91.0568 356.336L328.083 590.982C336.249 599.066 349.488 599.066 357.654 590.982L594.68 356.336C602.845 348.252 602.845 335.146 594.68 327.062L357.654 92.4154C349.488 84.3317 336.249 84.3318 328.083 92.4155Z" fill="#FFD119"/>
<path d="M330.455 94.7645L93.4293 329.411C86.574 336.197 86.574 347.2 93.4293 353.987L330.455 588.633C337.311 595.42 348.425 595.42 355.281 588.633L592.307 353.987C599.162 347.2 599.162 336.197 592.307 329.411L355.281 94.7645C348.425 87.978 337.311 87.978 330.455 94.7645Z" stroke="white" stroke-width="6.64321"/>
</g>
<path d="M329.418 122.147L122.424 327.062C114.258 335.146 114.258 348.252 122.424 356.336L329.418 561.251C337.583 569.335 350.822 569.335 358.988 561.251L565.982 356.336C574.147 348.252 574.147 335.146 565.982 327.062L358.988 122.147C350.822 114.063 337.583 114.063 329.418 122.147Z" fill="#FFD119"/>
<path d="M270.861 456.438V317.494C270.861 297.314 287.385 280.957 307.769 280.957H387.981" stroke="white" stroke-width="43.181"/>
<path d="M354.334 231.136L454.874 280.392L354.334 329.648V231.136Z" fill="white" stroke="white" stroke-width="3.1336"/>
</g>
<defs>
<filter id="filter0_d_4125_119" x="27.4688" y="28.8889" width="630.799" height="625.62" filterUnits="userSpaceOnUse" color-interpolation-filters="sRGB">
<feFlood flood-opacity="0" result="BackgroundImageFix"/>
<feColorMatrix in="SourceAlpha" type="matrix" values="0 0 0 0 0 0 0 0 0 0 0 0 0 0 0 0 0 0 127 0" result="hardAlpha"/>
<feOffset/>
<feGaussianBlur stdDeviation="28.7319"/>
<feComposite in2="hardAlpha" operator="out"/>
<feColorMatrix type="matrix" values="0 0 0 0 0.775 0 0 0 0 0.638729 0 0 0 0 0.0936458 0 0 0 0.05 0"/>
<feBlend mode="normal" in2="BackgroundImageFix" result="effect1_dropShadow_4125_119"/>
<feBlend mode="normal" in="SourceGraphic" in2="effect1_dropShadow_4125_119" result="shape"/>
</filter>
</defs>
</svg>
