<svg width="684" height="684" viewBox="0 0 684 684" fill="none" xmlns="http://www.w3.org/2000/svg">
<g clip-path="url(#clip0_4260_155)">
<mask id="mask0_4260_155" style="mask-type:luminance" maskUnits="userSpaceOnUse" x="0" y="0" width="684" height="684">
<path d="M684 0H0V684H684V0Z" fill="white"/>
</mask>
<g mask="url(#mask0_4260_155)">
<g filter="url(#filter0_d_4260_155)">
<path d="M612.377 0H71.6229C32.0667 0 0 30.7776 0 68.7437V615.256C0 653.222 32.0667 684 71.6229 684H612.377C651.933 684 684 653.222 684 615.256V68.7437C684 30.7776 651.933 0 612.377 0Z" fill="#AD1616"/>
</g>
</g>
<path d="M470.658 -10.6559C481.594 -10.6242 492.069 -6.24978 499.779 1.50521L682.099 184.882C689.809 192.637 694.123 203.137 694.091 214.072L693.344 472.658C693.312 483.594 688.938 494.069 681.183 501.779L497.807 684.099C490.052 691.809 479.551 696.123 468.616 696.091L210.03 695.344C199.094 695.312 188.619 690.938 180.909 683.183L-1.41064 499.806C-9.12093 492.051 -13.4348 481.551 -13.4032 470.616L-12.6558 212.03C-12.6242 201.094 -8.24969 190.619 -0.494699 182.909L182.882 0.589254C190.637 -7.12104 201.137 -11.4349 212.073 -11.4033L470.658 -10.6559Z" fill="#C82020"/>
<path d="M435.051 80.3653C445.796 80.3964 456.088 84.6944 463.663 92.3138L593.219 222.62C600.794 230.24 605.033 240.556 605.002 251.301L604.47 435.051C604.439 445.795 600.141 456.087 592.522 463.663L462.215 593.218C454.596 600.794 444.279 605.032 433.535 605.001L249.785 604.47C239.04 604.439 228.748 600.141 221.173 592.521L91.6175 462.215C84.042 454.596 79.8036 444.279 79.8347 433.534L80.3658 249.784C80.3968 239.04 84.6948 228.748 92.3142 221.172L222.621 91.6171C230.24 84.0416 240.557 79.8032 251.301 79.8342L435.051 80.3653Z" fill="#CF2B2B"/>
<path d="M421.409 187.744L496.081 262.849C503.043 269.851 506.938 279.332 506.909 289.207L506.603 395.114C506.575 404.988 502.625 414.447 495.622 421.409L420.518 496.08C413.516 503.042 404.034 506.938 394.16 506.909L288.253 506.603C278.378 506.574 268.92 502.625 261.958 495.622L187.286 420.518C180.324 413.515 176.429 404.034 176.458 394.16L176.764 288.252C176.792 278.378 180.742 268.92 187.745 261.958L262.849 187.286C269.851 180.324 279.333 176.429 289.207 176.457L395.114 176.764C404.989 176.792 414.447 180.742 421.409 187.744Z" fill="#B90505" stroke="white" stroke-width="7"/>
<path d="M341.063 457V302.754" stroke="white" stroke-width="39.4112"/>
<path d="M282.444 319.183C280.979 319.183 280.111 317.545 280.933 316.333L340.009 229.228C340.733 228.16 342.306 228.16 343.031 229.228L402.107 316.333C402.929 317.545 402.061 319.183 400.596 319.183H282.444Z" fill="white" stroke="white" stroke-width="2.86003"/>
</g>
<defs>
<filter id="filter0_d_4260_155" x="-69.2146" y="-38.068" width="822.429" height="822.429" filterUnits="userSpaceOnUse" color-interpolation-filters="sRGB">
<feFlood flood-opacity="0" result="BackgroundImageFix"/>
<feColorMatrix in="SourceAlpha" type="matrix" values="0 0 0 0 0 0 0 0 0 0 0 0 0 0 0 0 0 0 127 0" result="hardAlpha"/>
<feOffset dy="31.1466"/>
<feGaussianBlur stdDeviation="34.6073"/>
<feComposite in2="hardAlpha" operator="out"/>
<feColorMatrix type="matrix" values="0 0 0 0 0 0 0 0 0 0 0 0 0 0 0 0 0 0 0.1 0"/>
<feBlend mode="normal" in2="BackgroundImageFix" result="effect1_dropShadow_4260_155"/>
<feBlend mode="normal" in="SourceGraphic" in2="effect1_dropShadow_4260_155" result="shape"/>
</filter>
<clipPath id="clip0_4260_155">
<rect width="684" height="684" rx="70" fill="white"/>
</clipPath>
</defs>
</svg>
