<svg width="684" height="684" viewBox="0 0 684 684" fill="none" xmlns="http://www.w3.org/2000/svg">
<g clip-path="url(#clip0_4125_145)">
<g filter="url(#filter0_d_4125_145)">
<path d="M612.377 0H71.6229C32.0667 0 0 30.7776 0 68.7437V615.256C0 653.222 32.0667 684 71.6229 684H612.377C651.933 684 684 653.222 684 615.256V68.7437C684 30.7776 651.933 0 612.377 0Z" fill="#980101"/>
</g>
<mask id="mask0_4125_145" style="mask-type:alpha" maskUnits="userSpaceOnUse" x="0" y="0" width="684" height="689">
<path d="M612.377 0H71.623C32.0667 0 0 30.9884 0 69.2144V619.47C0 657.696 32.0667 688.684 71.623 688.684H612.377C651.933 688.684 684 657.696 684 619.47V69.2144C684 30.9884 651.933 0 612.377 0Z" fill="#5D6272"/>
</mask>
<g mask="url(#mask0_4125_145)">
<path d="M335.848 -356.664C338.49 -361.112 344.818 -361.112 347.46 -356.664L967.317 687.225C970.056 691.838 966.798 697.731 961.51 697.731H-278.202C-283.49 697.731 -286.747 691.838 -284.008 687.225L335.848 -356.664Z" fill="#AD1616"/>
<path d="M333.269 -136.274C335.912 -140.715 342.233 -140.715 344.875 -136.274L786.904 606.552C789.648 611.165 786.392 617.064 781.101 617.064H-102.957C-108.248 617.064 -111.504 611.165 -108.76 606.552L333.269 -136.274Z" fill="#C82020"/>
<path d="M334.482 43.7888C337.12 39.3179 343.476 39.3179 346.114 43.7888L625.077 516.595C627.799 521.209 624.541 527.085 619.262 527.085H61.335C56.0555 527.085 52.7973 521.209 55.5192 516.595L334.482 43.7888Z" fill="#CF2B2B"/>
<path d="M343.048 208.127L480.88 439.636C482.253 441.942 480.625 444.893 477.979 444.893H202.315C199.669 444.893 198.041 441.942 199.414 439.636L337.246 208.127C338.567 205.907 341.727 205.907 343.048 208.127Z" fill="#B90505" stroke="white" stroke-width="6.92144"/>
<mask id="mask1_4125_145" style="mask-type:alpha" maskUnits="userSpaceOnUse" x="268" y="294" width="145" height="141">
<path d="M412.903 294.729H268.616V434.92H412.903V294.729Z" fill="#D9D9D9"/>
</mask>
<g mask="url(#mask1_4125_145)">
<path d="M304.686 405.714V411.555C304.686 413.211 304.109 414.598 302.958 415.718C301.805 416.837 300.377 417.396 298.674 417.396H292.662C290.958 417.396 289.53 416.837 288.379 415.718C287.226 414.598 286.649 413.211 286.649 411.555V364.825L299.275 329.777C299.876 328.026 300.953 326.613 302.507 325.542C304.059 324.472 305.789 323.936 307.691 323.936H373.823C375.726 323.936 377.455 324.472 379.008 325.542C380.561 326.613 381.638 328.026 382.239 329.777L394.864 364.825V411.555C394.864 413.211 394.289 414.598 393.136 415.718C391.984 416.837 390.556 417.396 388.853 417.396H382.841C381.138 417.396 379.71 416.837 378.557 415.718C377.405 414.598 376.829 413.211 376.829 411.555V405.714H304.686ZM303.483 353.143H378.031L371.718 335.618H309.796L303.483 353.143ZM313.704 388.191C316.208 388.191 318.338 387.339 320.091 385.635C321.845 383.932 322.721 381.862 322.721 379.428C322.721 376.995 321.845 374.925 320.091 373.223C318.338 371.518 316.208 370.666 313.704 370.666C311.198 370.666 309.069 371.518 307.316 373.223C305.563 374.925 304.686 376.995 304.686 379.428C304.686 381.862 305.563 383.932 307.316 385.635C309.069 387.339 311.198 388.191 313.704 388.191ZM367.811 388.191C370.316 388.191 372.445 387.339 374.199 385.635C375.952 383.932 376.829 381.862 376.829 379.428C376.829 376.995 375.952 374.925 374.199 373.223C372.445 371.518 370.316 370.666 367.811 370.666C365.306 370.666 363.177 371.518 361.423 373.223C359.67 374.925 358.793 376.995 358.793 379.428C358.793 381.862 359.67 383.932 361.423 385.635C363.177 387.339 365.306 388.191 367.811 388.191Z" fill="white"/>
</g>
</g>
</g>
<defs>
<filter id="filter0_d_4125_145" x="-69.2146" y="-38.068" width="822.429" height="822.429" filterUnits="userSpaceOnUse" color-interpolation-filters="sRGB">
<feFlood flood-opacity="0" result="BackgroundImageFix"/>
<feColorMatrix in="SourceAlpha" type="matrix" values="0 0 0 0 0 0 0 0 0 0 0 0 0 0 0 0 0 0 127 0" result="hardAlpha"/>
<feOffset dy="31.1466"/>
<feGaussianBlur stdDeviation="34.6073"/>
<feComposite in2="hardAlpha" operator="out"/>
<feColorMatrix type="matrix" values="0 0 0 0 0 0 0 0 0 0 0 0 0 0 0 0 0 0 0.1 0"/>
<feBlend mode="normal" in2="BackgroundImageFix" result="effect1_dropShadow_4125_145"/>
<feBlend mode="normal" in="SourceGraphic" in2="effect1_dropShadow_4125_145" result="shape"/>
</filter>
<clipPath id="clip0_4125_145">
<rect width="684" height="684" fill="white"/>
</clipPath>
</defs>
</svg>
