<svg width="685" height="684" viewBox="0 0 685 684" fill="none" xmlns="http://www.w3.org/2000/svg">
<mask id="mask0_4260_140" style="mask-type:alpha" maskUnits="userSpaceOnUse" x="1" y="0" width="683" height="684">
<path d="M612.482 0H72.5182C33.0198 0 1 30.7776 1 68.7437V615.256C1 653.222 33.0198 684 72.5182 684H612.482C651.98 684 684 653.222 684 615.256V68.7437C684 30.7776 651.98 0 612.482 0Z" fill="#D9D9D9"/>
</mask>
<g mask="url(#mask0_4260_140)">
<path d="M325.458 -346.634L-352.458 324.475C-362.146 334.067 -362.146 349.617 -352.458 359.208L325.458 1030.32C335.146 1039.91 350.854 1039.91 360.542 1030.32L1038.46 359.208C1048.15 349.617 1048.15 334.067 1038.46 324.476L360.542 -346.634C350.854 -356.225 335.146 -356.225 325.458 -346.634Z" fill="#D7B52F"/>
<path d="M324.176 -308.097L-304.655 314.421C-315.299 324.958 -315.299 342.042 -304.655 352.579L324.176 975.096C334.82 985.634 352.077 985.634 362.721 975.097L991.553 352.579C1002.2 342.042 1002.2 324.958 991.552 314.42L362.721 -308.097C352.077 -318.634 334.82 -318.634 324.176 -308.097Z" fill="#EBC737"/>
<path d="M324.205 -180.194L-184.114 323.022C-194.629 333.431 -194.629 350.306 -184.114 360.716L324.205 863.932C334.72 874.34 351.767 874.34 362.281 863.932L870.6 360.716C881.114 350.306 881.114 333.431 870.6 323.022L362.281 -180.194C351.767 -190.602 334.72 -190.602 324.205 -180.194Z" fill="#F3D24E"/>
<path d="M325.495 -50.6746L-53.7021 324.715C-64.2165 335.124 -64.2165 352.001 -53.7021 362.409L325.495 737.799C336.009 748.208 353.056 748.208 363.57 737.799L742.768 362.409C753.282 352.001 753.282 335.124 742.768 324.715L363.571 -50.6747C353.056 -61.0834 336.009 -61.0834 325.495 -50.6746Z" fill="#FAE17D"/>
<g filter="url(#filter0_d_4260_140)">
<path d="M137.883 333.053L334.045 138.86C339.244 133.713 347.69 133.713 352.889 138.86L549.051 333.053C554.227 338.178 554.227 346.47 549.051 351.595L352.889 545.787C347.69 550.934 339.244 550.934 334.045 545.787L137.883 351.595C132.706 346.47 132.706 338.178 137.883 333.053Z" fill="#FFD119" stroke="white" stroke-width="8"/>
</g>
<path d="M297.159 387V394.499C297.159 396.626 296.418 398.407 294.94 399.845C293.46 401.281 291.626 401.999 289.44 401.999H281.72C279.533 401.999 277.699 401.281 276.221 399.845C274.741 398.407 274 396.626 274 394.499V334.5L290.211 289.5C290.983 287.251 292.366 285.437 294.361 284.062C296.354 282.688 298.575 282 301.017 282H385.928C388.372 282 390.592 282.688 392.586 284.062C394.579 285.437 395.962 287.251 396.734 289.5L412.944 334.5V394.499C412.944 396.626 412.206 398.407 410.725 399.845C409.246 401.281 407.413 401.999 405.226 401.999H397.507C395.32 401.999 393.487 401.281 392.006 399.845C390.527 398.407 389.788 396.626 389.788 394.499V387H297.159ZM295.614 319.501H391.331L383.225 296.999H303.72L295.614 319.501ZM308.738 364.501C311.953 364.501 314.688 363.407 316.938 361.219C319.19 359.033 320.315 356.375 320.315 353.25C320.315 350.126 319.19 347.468 316.938 345.283C314.688 343.093 311.953 342 308.738 342C305.52 342 302.786 343.093 300.536 345.283C298.285 347.468 297.159 350.126 297.159 353.25C297.159 356.375 298.285 359.033 300.536 361.219C302.786 363.407 305.52 364.501 308.738 364.501ZM378.209 364.501C381.425 364.501 384.159 363.407 386.411 361.219C388.662 359.033 389.788 356.375 389.788 353.25C389.788 350.126 388.662 347.468 386.411 345.283C384.159 343.093 381.425 342 378.209 342C374.993 342 372.259 343.093 370.007 345.283C367.756 347.468 366.63 350.126 366.63 353.25C366.63 356.375 367.756 359.033 370.007 361.219C372.259 363.407 374.993 364.501 378.209 364.501Z" fill="white"/>
</g>
<defs>
<filter id="filter0_d_4260_140" x="82.4432" y="83.4432" width="522.047" height="517.761" filterUnits="userSpaceOnUse" color-interpolation-filters="sRGB">
<feFlood flood-opacity="0" result="BackgroundImageFix"/>
<feColorMatrix in="SourceAlpha" type="matrix" values="0 0 0 0 0 0 0 0 0 0 0 0 0 0 0 0 0 0 127 0" result="hardAlpha"/>
<feOffset/>
<feGaussianBlur stdDeviation="23.7784"/>
<feComposite in2="hardAlpha" operator="out"/>
<feColorMatrix type="matrix" values="0 0 0 0 0.775 0 0 0 0 0.638729 0 0 0 0 0.0936458 0 0 0 0.05 0"/>
<feBlend mode="normal" in2="BackgroundImageFix" result="effect1_dropShadow_4260_140"/>
<feBlend mode="normal" in="SourceGraphic" in2="effect1_dropShadow_4260_140" result="shape"/>
</filter>
</defs>
</svg>
