<svg width="810" height="810" viewBox="0 0 810 810" fill="none" xmlns="http://www.w3.org/2000/svg">
<circle cx="404.964" cy="405.096" r="369.093" fill="#FDFDFD" stroke="#CD1515" stroke-width="70.785"/>
<path d="M533.477 681.677V381.701C533.477 338.135 498.159 302.817 454.593 302.817H283.188" stroke="black" stroke-width="70.785"/>
<path d="M150.243 292.535C142.741 296.248 142.741 306.947 150.243 310.66L343.202 406.161C349.923 409.488 357.799 404.598 357.799 397.098V206.097C357.799 198.597 349.923 193.707 343.202 197.034L150.243 292.535Z" fill="black"/>
<path d="M404.964 0.609985C351.846 0.609985 299.249 11.0723 250.174 31.3996C201.1 51.7269 156.51 81.5212 118.95 119.081C81.3897 156.641 51.5955 201.231 31.2682 250.306C10.9408 299.38 0.478513 351.978 0.478516 405.096C0.478518 458.214 10.9409 510.811 31.2682 559.886C51.5955 608.96 81.3897 653.55 118.95 691.11C156.51 728.67 201.1 758.465 250.174 778.792C299.249 799.119 351.846 809.582 404.964 809.582L404.964 405.096V0.609985Z" fill="#FDFDFD" fill-opacity="0.25"/>
</svg>
