<svg width="1165" height="1165" viewBox="0 0 1165 1165" fill="none" xmlns="http://www.w3.org/2000/svg">
<path d="M754.427 172.027L994.527 413.518L993.543 754.055L752.051 994.155L411.514 993.17L171.415 751.678L172.399 411.142L413.891 171.042L754.427 172.027Z" fill="#CD1515"/>
<path d="M427.883 205.096L738.616 205.994L957.701 426.35L956.803 737.082L736.447 956.168L425.715 955.27L206.629 734.914L207.527 424.182L427.883 205.096Z" stroke="white" stroke-width="30.3364"/>
<path d="M304.889 659.944V499.394H376.763C386.875 499.394 395.042 500.638 401.265 503.128C407.488 505.617 412.233 509.195 415.5 513.862C418.922 518.374 421.178 523.819 422.267 530.197C423.512 536.575 424.134 543.654 424.134 551.432C424.134 558.744 423.59 565.59 422.501 571.968C421.412 578.191 419.156 583.714 415.733 588.536C412.466 593.203 407.643 596.859 401.265 599.504C394.887 602.149 386.486 603.471 376.062 603.471H331.258V659.944H304.889ZM331.258 581.069H366.028C373.34 581.069 379.174 580.602 383.53 579.669C387.886 578.735 390.997 577.102 392.864 574.768C394.887 572.435 396.209 569.401 396.831 565.667C397.454 561.934 397.765 557.189 397.765 551.432C397.765 545.676 397.454 540.931 396.831 537.198C396.365 533.308 395.12 530.275 393.098 528.097C391.231 525.763 388.197 524.13 383.997 523.196C379.796 522.263 374.04 521.796 366.728 521.796H331.258V581.069ZM431.667 659.944L489.073 499.394H523.61L581.016 659.944H553.713L539.712 620.273H472.038L458.27 659.944H431.667ZM479.505 597.871H532.011L506.341 524.83H505.175L479.505 597.871ZM607.524 659.944V499.394H682.431C692.543 499.394 700.711 500.561 706.934 502.894C713.157 505.228 717.824 508.65 720.935 513.162C724.047 517.518 726.147 522.807 727.236 529.03C728.325 535.097 728.869 541.787 728.869 549.099C728.869 554.388 728.325 560.222 727.236 566.601C726.302 572.824 724.124 578.58 720.702 583.869C717.435 589.003 712.223 592.737 705.067 595.07L731.436 659.944H703.433L677.764 594.37L684.532 597.871C683.443 598.337 682.12 598.648 680.564 598.804C679.164 598.804 677.453 598.804 675.431 598.804H633.893V659.944H607.524ZM633.893 576.402H671.23C678.542 576.402 684.298 575.935 688.499 575.002C692.699 573.913 695.81 572.279 697.833 570.101C699.855 567.923 701.1 565.123 701.567 561.7C702.189 558.278 702.5 554.077 702.5 549.099C702.5 543.965 702.189 539.687 701.567 536.264C701.1 532.686 699.933 529.886 698.066 527.863C696.199 525.685 693.166 524.13 688.965 523.196C684.92 522.263 679.32 521.796 672.164 521.796H633.893V576.402ZM765.906 659.944V499.394H872.783V521.796H792.275V567.768H861.816V590.17H792.275V637.541H872.783V659.944H765.906Z" fill="white"/>
<path fill-rule="evenodd" clip-rule="evenodd" d="M588.029 172.976V995.111L412.049 994.602L171.949 753.11L172.933 412.574L414.425 172.474L588.029 172.976ZM992.515 412.389V757.04L994.077 755.487L995.061 414.95L992.515 412.389Z" fill="white" fill-opacity="0.21"/>
</svg>
