<svg width="476" height="780" viewBox="0 0 476 780" fill="none" xmlns="http://www.w3.org/2000/svg">
<rect x="0.330078" y="0.485657" width="475.271" height="778.635" rx="20.2243" fill="#00A5FF"/>
<rect x="25.3976" y="25.5505" width="425.14" height="728.505" rx="14.5228" stroke="white" stroke-width="9.68184"/>
<rect x="61.0039" y="51.0463" width="353.925" height="424.71" rx="20.2243" fill="white"/>
<path d="M61.2812 617.326H149.981H344.421" stroke="white" stroke-width="60.6729"/>
<path d="M411.424 615.527C412.889 616.279 412.889 618.374 411.424 619.126L281.362 685.873C280.016 686.564 278.416 685.587 278.416 684.074V550.578C278.416 549.066 280.016 548.088 281.362 548.779L411.424 615.527Z" fill="white"/>
<rect x="202.57" y="121.832" width="80.8972" height="283.14" fill="#CD1515"/>
<rect x="101.447" y="293.738" width="70.785" height="273.028" transform="rotate(-90 101.447 293.738)" fill="#CD1515"/>
<path d="M0.330078 20.71C0.330078 9.54038 9.3848 0.485657 20.5544 0.485657H243.022V779.121H20.5544C9.38481 779.121 0.330078 770.066 0.330078 758.896V20.71Z" fill="white" fill-opacity="0.25"/>
</svg>
