<svg width="810" height="810" viewBox="0 0 810 810" fill="none" xmlns="http://www.w3.org/2000/svg">
<circle cx="404.964" cy="405.263" r="369.093" fill="#FDFDFD" stroke="#CD1515" stroke-width="70.785"/>
<path d="M533.477 681.844V381.869C533.477 338.302 498.159 302.985 454.593 302.985H283.188" stroke="black" stroke-width="70.785"/>
<path d="M150.243 292.702C142.741 296.415 142.741 307.115 150.243 310.828L343.202 406.329C349.923 409.655 357.799 404.765 357.799 397.266V206.264C357.799 198.765 349.923 193.875 343.202 197.201L150.243 292.702Z" fill="black"/>
<line x1="154.847" y1="170.805" x2="654.605" y2="670.564" stroke="#CD1515" stroke-width="70.785"/>
<path d="M404.964 0.776978C351.846 0.776978 299.249 11.2393 250.174 31.5666C201.1 51.8939 156.51 81.6881 118.95 119.248C81.3897 156.808 51.5955 201.398 31.2682 250.473C10.9408 299.547 0.478513 352.145 0.478516 405.263C0.478518 458.381 10.9409 510.978 31.2682 560.053C51.5955 609.127 81.3897 653.717 118.95 691.277C156.51 728.837 201.1 758.632 250.174 778.959C299.249 799.286 351.846 809.749 404.964 809.749L404.964 405.263V0.776978Z" fill="#FDFDFD" fill-opacity="0.25"/>
</svg>
